<svg width="26" height="19" viewBox="0 0 26 19" fill="none" xmlns="http://www.w3.org/2000/svg">
<path d="M18.3333 6.66667L21.7691 4.47639C22.8265 3.80221 23.3553 3.46513 23.7904 3.50822C24.1697 3.54579 24.5159 3.754 24.7413 4.0803C25 4.45451 25 5.10968 25 6.42002V12.58C25 13.8902 25 14.5455 24.7413 14.9197C24.5159 15.246 24.1697 15.4542 23.7904 15.4918C23.3553 15.5349 22.8265 15.1978 21.7691 14.5236L18.3333 12.3333M5.26667 18H14.0667C15.5601 18 16.3069 18 16.8773 17.6912C17.3791 17.4196 17.7871 16.9861 18.0427 16.453C18.3333 15.847 18.3333 15.0535 18.3333 13.4667V5.53333C18.3333 3.94652 18.3333 3.15311 18.0427 2.54703C17.7871 2.01389 17.3791 1.58045 16.8773 1.30882C16.3069 1 15.5601 1 14.0667 1H5.26667C3.7732 1 3.02645 1 2.45603 1.30882C1.95425 1.58045 1.54631 2.01389 1.29065 2.54703C1 3.15311 1 3.94651 1 5.53333V13.4667C1 15.0535 1 15.847 1.29065 16.453C1.54631 16.9861 1.95425 17.4196 2.45603 17.6912C3.02645 18 3.77319 18 5.26667 18Z" stroke="#2F4858" stroke-linecap="round" stroke-linejoin="round"/>
</svg>
