<svg width="12" height="12" viewBox="0 0 12 12" fill="none" xmlns="http://www.w3.org/2000/svg">
<path d="M9.19476 4.38263C10.2068 4.91895 10.7128 5.1871 10.8863 5.53048C11.0379 5.83028 11.0379 6.16971 10.8863 6.46958C10.7128 6.81289 10.2068 7.08104 9.19476 7.61741L4.44149 10.1365C3.31826 10.7317 2.75664 11.0294 2.29318 10.9977C1.8892 10.9702 1.51888 10.7962 1.27723 10.5203C1 10.2038 1 9.64223 1 8.51908V3.48096C1 2.35782 1 1.79625 1.27723 1.47974C1.51888 1.20385 1.8892 1.02982 2.29318 1.00228C2.75664 0.970687 3.31826 1.26832 4.44149 1.86358L9.19476 4.38263Z" stroke="#2F4858" stroke-linejoin="round"/>
</svg>
